<?xml version="1.0" encoding="UTF-8" standalone="no"?>
<svg
   xmlns:dc="http://purl.org/dc/elements/1.1/"
   xmlns:cc="http://creativecommons.org/ns#"
   xmlns:rdf="http://www.w3.org/1999/02/22-rdf-syntax-ns#"
   xmlns:svg="http://www.w3.org/2000/svg"
   xmlns="http://www.w3.org/2000/svg"
   xmlns:sodipodi="http://sodipodi.sourceforge.net/DTD/sodipodi-0.dtd"
   xmlns:inkscape="http://www.inkscape.org/namespaces/inkscape"
   version="1.1"
   viewBox="0 0 428.99 524.33"
   id="svg166"
   sodipodi:docname="Build-Up.svg"
   inkscape:version="0.92.4 (f8dce91, 2019-08-02)">
  <metadata
     id="metadata172">
    <rdf:RDF>
      <cc:Work
         rdf:about="">
        <dc:format>image/svg+xml</dc:format>
        <dc:type
           rdf:resource="http://purl.org/dc/dcmitype/StillImage" />
      </cc:Work>
    </rdf:RDF>
  </metadata>
  <defs
     id="defs170" />
  <sodipodi:namedview
     pagecolor="#ffffff"
     bordercolor="#666666"
     borderopacity="1"
     objecttolerance="10"
     gridtolerance="10"
     guidetolerance="10"
     inkscape:pageopacity="0"
     inkscape:pageshadow="2"
     inkscape:window-width="2560"
     inkscape:window-height="1376"
     id="namedview168"
     showgrid="false"
     inkscape:zoom="1.1424103"
     inkscape:cx="-87.190664"
     inkscape:cy="285.61027"
     inkscape:window-x="0"
     inkscape:window-y="27"
     inkscape:window-maximized="1"
     inkscape:current-layer="g164" />
  <g
     transform="translate(-180.31 -244.48)"
     id="g164">
    <path
       d="m333.27 244.48c-9.0304 0-16.342 10.519-16.342 19.55v7.7384c0 6.3886 3.685 11.885 9.0111 14.56-0.0798 1.0586-0.15314 2.1275-0.15314 3.2074v153.8c-2.4178 4.5548-4.7734 9.2986-7.3312 14l-132.17 239.08c-21.284 39.127 19.219 72.395 43.071 72.395h330.72c23.851 0 64.789-32.472 43.071-72.395l-132.16-239.08c-2.5578-4.7019-4.9134-9.4456-7.3312-14v-153.8c0-1.0798-0.0733-2.1487-0.15314-3.2074 5.3262-2.6758 9.0111-8.1719 9.0111-14.56v-7.7384c0-9.0306-7.2608-19.55-16.291-19.55z"
       stroke-width="25.8"
       id="path144" />
    <g
       transform="matrix(1.6291 0 0 1.6291 -1390.6 -814.74)"
       fill="#fff"
       stroke-width="25.8"
       id="g152">
      <path
         d="m1080.3 768.8h31.307c12.456 0 16.531 11.607 22.483 22.611l70.701 130.71c14.28 26.399-10.028 38.012-22.484 38.012h-172.71c-12.456 0-35.208-14.489-22.483-38.012l70.701-130.71c5.9522-11.004 10.028-22.611 22.483-22.611z"
         id="path146" />
      <rect
         x="1063.8"
         y="670.49"
         width="64.23"
         height="117.7"
         ry="0"
         id="rect148" />
      <rect
         transform="rotate(-90)"
         x="-671.96"
         y="1058.1"
         width="13.263"
         height="75.529"
         ry="4.3"
         id="rect150" />
    </g>
    <path
       d="m461.99 505.91 91.927 174.75c20.125 38.256-14.442 54.746-32.381 54.746h-248.74c-17.939 0-50.781-20.907-32.381-54.746l90.127-165.75c79.68 31.256 108.66-55.62 131.45-8.999z"
       stroke-width="25.8"
       id="path154" />
    <path
       transform="matrix(3.5487 0 0 3.5487 -3615.7 -2224.5)"
       d="m1133.3 805.21c0 4.6217-3.7466 8.3683-8.3683 8.3683-4.6216 0-8.3682-3.7466-8.3682-8.3683s3.7466-8.3683 8.3682-8.3683c4.6217 0 8.3683 3.7466 8.3683 8.3683z"
       fill="#fff"
       id="path156" />
    <path
       transform="matrix(2.097 0 0 2.097 -2012.7 -1091.1)"
       d="m1133.3 805.21c0 4.6217-3.7466 8.3683-8.3683 8.3683-4.6216 0-8.3682-3.7466-8.3682-8.3683s3.7466-8.3683 8.3682-8.3683c4.6217 0 8.3683 3.7466 8.3683 8.3683z"
       fill="#fff"
       id="path158" />
    <path
       transform="matrix(1.2367 0 0 1.2367 -968.45 -432.55)"
       d="m1133.3 805.21c0 4.6217-3.7466 8.3683-8.3683 8.3683-4.6216 0-8.3682-3.7466-8.3682-8.3683s3.7466-8.3683 8.3682-8.3683c4.6217 0 8.3683 3.7466 8.3683 8.3683z"
       fill="#fff"
       id="path160" />
    <rect
       x="413.88"
       y="281.54"
       width="15.08"
       height="164.1"
       ry="7.5399"
       id="rect162" />
  </g>
</svg>
