<?xml version="1.0" encoding="utf-8"?>
<!-- Generator: Adobe Illustrator 23.1.1, SVG Export Plug-In . SVG Version: 6.00 Build 0)  -->
<svg version="1.1" id="Ebene_1" xmlns="http://www.w3.org/2000/svg" xmlns:xlink="http://www.w3.org/1999/xlink" x="0px" y="0px"
	 viewBox="0 0 25 25" style="enable-background:new 0 0 25 25;" xml:space="preserve">
<style type="text/css">
	.st0{fill:url(#SVGID_1_);}
	.st1{fill:url(#SVGID_2_);}
	.st2{fill:url(#SVGID_3_);}
	.st3{fill:url(#SVGID_4_);}
	.st4{fill:url(#SVGID_5_);}
	.st5{fill:url(#SVGID_6_);}
	.st6{fill:url(#SVGID_7_);}
	.st7{fill:url(#SVGID_8_);}
	.st8{fill:url(#SVGID_9_);}
	.st9{fill:url(#SVGID_10_);}
	.st10{fill:url(#SVGID_11_);}
	.st11{fill:url(#SVGID_12_);}
	.st12{fill:url(#SVGID_13_);}
	.st13{fill:url(#SVGID_14_);}
</style>
<g>
	<linearGradient id="SVGID_1_" gradientUnits="userSpaceOnUse" x1="3.7515" y1="11.2839" x2="21.3807" y2="11.2839">
		<stop  offset="1" style="stop-color:#E7454F"/>
	</linearGradient>
	<path class="st0" d="M11.09,7.77V3.79c0-0.24,0.19-0.43,0.43-0.44c0.25,0,0.45,0.2,0.45,0.45v3.96c0,0.25-0.2,0.45-0.45,0.45
		C11.28,8.2,11.09,8.01,11.09,7.77z M20.33,20.92h-0.69H5.09H4.8h0c-0.8,0-1.3-0.85-0.93-1.55l0.08-0.15
		c0.18-0.34,0.77-1.42,0.77-1.43l4.65-8.63C9.42,9.09,9.44,9,9.44,8.91V2.7c0-0.58,0.47-1.05,1.05-1.05h4.16
		c0.57,0,1.04,0.46,1.04,1.04v6.23c0,0.09,0.02,0.18,0.06,0.26l4.23,7.86l0,0l0.98,1.82l0.28,0.53
		C21.63,20.07,21.12,20.92,20.33,20.92z M20.47,19.77l-5.6-10.38c-0.04-0.08-0.06-0.17-0.06-0.26V3.16c0-0.35-0.28-0.64-0.64-0.64
		h-3.22c-0.35,0-0.64,0.28-0.64,0.64v5.97c0,0.09-0.02,0.18-0.06,0.26l-5.6,10.38c-0.07,0.13,0.02,0.28,0.17,0.28H20.3
		C20.45,20.05,20.54,19.89,20.47,19.77z M18.51,18.29c0.24,0.44-0.08,0.98-0.59,0.98h-5.36H7.21c-0.5,0-0.83-0.54-0.59-0.98
		l3.11-5.78c0.05-0.1,0.16-0.16,0.27-0.16c0.02,0,0.04,0,0.06,0.01c0.2,0.04,0.51,0.1,0.85,0.1c0.53,0,1.14-0.12,1.55-0.6
		c0.35-0.4,0.81-0.87,1.88-0.92c0,0,0.01,0,0.01,0c0.11,0,0.22,0.06,0.27,0.16l3.64,6.75L18.51,18.29z M17.35,17.97l-3.19-5.93
		c-0.07-0.13-0.22-0.18-0.35-0.13c-0.32,0.12-0.49,0.32-0.68,0.52c-0.52,0.58-1.28,0.89-2.21,0.89c-0.15,0-0.29-0.01-0.42-0.02
		c-0.12-0.01-0.23,0.05-0.28,0.15l-2.43,4.52c-0.1,0.19,0.04,0.42,0.25,0.42h4.53h4.53C17.31,18.4,17.45,18.16,17.35,17.97z"/>
</g>
</svg>
