<?xml version="1.0" encoding="utf-8"?>
<!-- Generator: Adobe Illustrator 23.1.1, SVG Export Plug-In . SVG Version: 6.00 Build 0)  -->
<svg version="1.1" id="Ebene_1" xmlns="http://www.w3.org/2000/svg" xmlns:xlink="http://www.w3.org/1999/xlink" x="0px" y="0px"
	 viewBox="0 0 25 25" style="enable-background:new 0 0 25 25;" xml:space="preserve">
<style type="text/css">
	.st0{fill:url(#SVGID_1_);}
	.st1{fill:url(#SVGID_2_);}
	.st2{fill:url(#SVGID_3_);}
	.st3{fill:url(#SVGID_4_);}
	.st4{fill:url(#SVGID_5_);}
	.st5{fill:url(#SVGID_6_);}
	.st6{fill:url(#SVGID_7_);}
	.st7{fill:url(#SVGID_8_);}
	.st8{fill:url(#SVGID_9_);}
	.st9{fill:url(#SVGID_10_);}
	.st10{fill:url(#SVGID_11_);}
	.st11{fill:url(#SVGID_12_);}
	.st12{fill:url(#SVGID_13_);}
	.st13{fill:url(#SVGID_14_);}
</style>
<g>
	<linearGradient id="SVGID_1_" gradientUnits="userSpaceOnUse" x1="3.0664" y1="11.2839" x2="21.1697" y2="11.2839">
		<stop  offset="0" style="stop-color:#5C4897"/>
		<stop  offset="1" style="stop-color:#E7454F"/>
	</linearGradient>
	<path class="st0" d="M21.13,8.62C21.13,8.62,21.13,8.62,21.13,8.62l-2.35-5.61c0-0.01-0.01-0.01-0.02-0.02
		c-0.1-0.2-0.32-0.31-0.54-0.24l-4.92,1.6c-0.27-0.37-0.7-0.62-1.19-0.62c-0.81,0-1.47,0.66-1.47,1.47c0,0,0,0.01,0,0.01l-4.92,1.6
		C5.69,6.82,5.67,6.85,5.64,6.86c-0.01,0-0.02,0.01-0.02,0.01C5.55,6.92,5.49,6.99,5.46,7.06c0,0-0.01,0.01-0.01,0.01L3.1,12.68
		c0,0,0,0,0,0c-0.02,0.06-0.04,0.11-0.04,0.18c0,0.01,0,0.02,0,0.03c0,0.01,0,0.01,0,0.02c0.03,1.52,1.27,2.74,2.8,2.74
		c1.52,0,2.76-1.23,2.8-2.74c0-0.01,0-0.01,0-0.02c0-0.01,0-0.02,0-0.03c0-0.06-0.01-0.12-0.04-0.18c0,0,0,0,0,0L6.47,7.52
		l4.46-1.45l0,0c0.18,0.25,0.44,0.43,0.74,0.52l-0.02,11.47c0,0.01,0.01,0.03,0.01,0.04H9.19c-0.48,0-0.86,0.39-0.86,0.86v0
		c0,0.48,0.39,0.86,0.86,0.86h5.86c0.48,0,0.86-0.39,0.86-0.86v0c0-0.48-0.39-0.86-0.86-0.86h-2.5c0-0.01,0.01-0.02,0.01-0.04
		l0.02-11.48c0.58-0.19,1.01-0.73,1.01-1.38l3.98-1.29l0,0l-1.97,4.7c0,0,0,0,0,0c-0.02,0.06-0.04,0.11-0.04,0.18
		c0,0.01,0,0.02,0,0.03c0,0.01,0,0.01,0,0.02c0.03,1.52,1.27,2.74,2.8,2.74c1.52,0,2.76-1.23,2.8-2.74c0-0.01,0-0.01,0-0.02
		c0-0.01,0-0.02,0-0.03C21.17,8.73,21.16,8.67,21.13,8.62z M5.87,14.74c-0.77,0-1.39-0.6-1.43-1.36c0-0.04,0.03-0.07,0.07-0.07h2.72
		c0.04,0,0.07,0.03,0.07,0.07C7.26,14.13,6.63,14.74,5.87,14.74z M6.7,10.41l0.79,1.88c0.02,0.05-0.02,0.11-0.08,0.11H5.87H4.32
		c-0.06,0-0.1-0.06-0.08-0.11l0.79-1.88L5.79,8.6c0.03-0.07,0.12-0.07,0.15,0L6.7,10.41z M18.37,10.68c-0.77,0-1.39-0.6-1.43-1.36
		c0-0.04,0.03-0.07,0.07-0.07h2.72c0.04,0,0.07,0.03,0.07,0.07C19.76,10.07,19.13,10.68,18.37,10.68z M19.92,8.34h-1.55h-1.55
		c-0.06,0-0.1-0.06-0.08-0.11l0.79-1.88l0.76-1.81c0.03-0.07,0.12-0.07,0.15,0l0.76,1.81L20,8.23C20.02,8.28,19.98,8.34,19.92,8.34z
		"/>
</g>
</svg>
