<?xml version="1.0" encoding="UTF-8" standalone="no"?>
<svg
   xmlns:dc="http://purl.org/dc/elements/1.1/"
   xmlns:cc="http://creativecommons.org/ns#"
   xmlns:rdf="http://www.w3.org/1999/02/22-rdf-syntax-ns#"
   xmlns:svg="http://www.w3.org/2000/svg"
   xmlns="http://www.w3.org/2000/svg"
   viewBox="0 0 495.99725 469.50459"
   height="469.50461"
   width="495.99725"
   xml:space="preserve"
   id="svg395"
   version="1.1"><metadata
     id="metadata401"><rdf:RDF><cc:Work
         rdf:about=""><dc:format>image/svg+xml</dc:format><dc:type
           rdf:resource="http://purl.org/dc/dcmitype/StillImage" /><dc:title></dc:title></cc:Work></rdf:RDF></metadata><defs
     id="defs399"><clipPath
       id="clipPath413"
       clipPathUnits="userSpaceOnUse"><path
         id="path411"
         d="m 260.61,345.2862 h 75.7138 v 83.1513 H 260.61 Z m -20.5275,-9.5199 V 437.66 c 0.2975,5.0575 4.6112,8.925 9.9663,9.2225 h 96.39 c 5.5037,-0.2975 9.8175,-4.165 10.2637,-9.0738 V 335.915 c -0.2975,-5.0575 -4.6112,-8.925 -9.9663,-9.2225 h -96.3899 c -5.5038,0.4463 -9.8175,4.3138 -10.2638,9.0738 z m 243.2063,102.6375 v 13.685 c 0.2975,2.5287 -0.7438,5.0575 -2.8263,7.14 l -176.2687,145.18 -0.4463,0.2974 c -3.7187,2.2313 -8.4787,2.2313 -12.1975,0 L 114.5375,458.9313 c -1.9337,-1.9338 -2.975,-4.3138 -2.6775,-6.9913 v -14.28 c 0,-4.4625 4.3138,-7.735 10.4125,-7.735 5.355,0.2975 9.52,4.165 9.9663,9.2225 v 10.115 l 166.005,136.255 166.3025,-137.7425 v -10.2637 c 0.2975,-4.76 4.6112,-8.6276 9.9662,-9.0738 h 0.2975 c 3.1238,0 6.2475,1.4875 7.8838,4.0163 1.19,1.785 1.4875,4.0162 0.595,5.95 z m -30.345,-15.1726 V 263.4737 c -0.2976,-5.0575 -4.6113,-8.925 -9.9663,-9.2225 H 154.2537 c -5.5037,0.2975 -9.8174,4.165 -10.2637,9.0738 V 423.38 c 0.4463,5.0575 4.6113,8.925 9.9663,9.2225 h 0.5949 c 5.355,-0.2975 9.5201,-4.165 9.9663,-9.0737 V 272.845 H 432.565 v 150.3862 c 0,5.0575 4.6112,9.2226 10.2638,9.2226 5.6524,0 10.115,-4.1651 10.115,-9.2226" /></clipPath><linearGradient
       id="linearGradient427"
       spreadMethod="pad"
       gradientTransform="matrix(371.9985,0,0,-371.9985,111.8097,430.3147)"
       gradientUnits="userSpaceOnUse"
       y2="0"
       x2="1"
       y1="0"
       x1="0"><stop
         id="stop425"
         offset="1"
         style="stop-opacity:1;stop-color:#f0364f" /></linearGradient></defs><g
     transform="matrix(1.3333333,0,0,-1.3333333,-151.09528,799.43619)"
     id="g403"><g
       id="g405" /><g
       transform="translate(1.5116711,-6.8025143)"
       id="g407"><g
         clip-path="url(#clipPath413)"
         id="g409"><g
           id="g415"><g
             id="g421"><path
               id="path429"
               style="fill:url(#linearGradient427);stroke:none"
               d="m 0,123.5 h 595 v 595 H 0 Z" /></g></g></g></g></g></svg>
