<?xml version="1.0" encoding="utf-8"?>
<!-- Svg Vector Icons : http://www.onlinewebfonts.com/icon -->
<!DOCTYPE svg PUBLIC "-//W3C//DTD SVG 1.1//EN" "http://www.w3.org/Graphics/SVG/1.1/DTD/svg11.dtd">
<svg version="1.1" xmlns="http://www.w3.org/2000/svg" xmlns:xlink="http://www.w3.org/1999/xlink" x="0px" y="0px" viewBox="0 0 1000 1000" enable-background="new 0 0 1000 1000" xml:space="preserve">
<metadata> Svg Vector Icons : http://www.onlinewebfonts.com/icon </metadata>
<g>
  <g stroke="10px" transform="translate(0.000000,512.000000) scale(0.100000,-0.100000)">
  <path fill="#fff" d="M2886.8,5003.3c-728.4-76.7-1424.2-417.9-1924.5-946.9C356.5,3420,34.5,2521,111.2,1677.6c28.8-308.6,65.2-481.1,159.1-764.8c362.3-1092.6,1336-1901.5,2493.8-2072.1c287.5-42.2,785.9-28.8,1056.2,30.7c494.6,105.4,956.5,325.9,1339.9,638.3c61.3,49.8,116.9,90.1,124.6,90.1c9.6,0,272.2-256.9,584.6-571.2l569.3-569.3l-40.3-115c-26.8-82.4-36.4-143.8-28.8-212.8c23-222.4-5.7-189.8,1370.5-1564.2C9158.7-4847.4,9080.1-4782.2,9335-4778.4c314.4,3.8,559.7,249.2,563.6,563.6c3.8,254.9,67.1,178.3-1338,1587.1C7795.8-1859,7262.9-1339.5,7216.9-1316.5c-105.4,55.6-337.4,69-462,26.8l-93.9-30.7l-569.3,569.3c-314.4,314.4-571.2,578.9-571.2,586.5c0,7.7,46,72.9,103.5,143.8c739.9,920.1,887.5,2179.5,383.4,3258.6c-285.6,613.4-845.3,1178.9-1451,1468.3C4025.4,4961.2,3448.4,5062.7,2886.8,5003.3z M3766.6,4644.9c1100.3-239.6,1932.2-1077.3,2169.9-2189c49.8-233.9,49.8-862.6-1.9-1092.6C5687.3,226.5,4811.3-626.5,3678.4-833.5c-249.2-46-713.1-44.1-956.5,1.9C1573.7-615,697.7,251.5,465.8,1395.8c-47.9,239.6-47.9,814.7,0,1040.8c118.8,559.7,375.7,1040.8,766.7,1433.8c442.8,450.5,985.3,716.9,1652.3,816.6C3028.6,4708.1,3597.9,4681.3,3766.6,4644.9z M7059.7-1590.6c59.4-30.7,2463.1-2430.6,2497.6-2493.8c111.2-208.9-105.4-444.7-331.6-358.5c-61.3,21.1-2465.1,2413.3-2509.1,2493.8c-61.3,115-17.3,274.1,93.9,341.2C6877.6-1565.7,6994.6-1558,7059.7-1590.6z"/>
  <path fill="#fff" d="M2242.7,3939.5c-299-136.1-707.3-486.9-891.3-764.8c-141.8-214.7-224.3-394.9-212.8-460c15.3-72.8,76.7-124.6,149.5-124.6c90.1,0,124.6,30.7,197.4,174.4c99.7,199.3,210.9,356.5,362.3,508c139.9,139.9,400.6,323.9,550.1,387.2c107.3,46,139.9,86.3,139.9,170.6c0,49.8-13.4,80.5-53.7,113.1C2419.1,4000.8,2375,3998.9,2242.7,3939.5z"/>
</g>
</g>
</svg>
