<?xml version="1.0" encoding="utf-8"?>
<!-- Generator: Adobe Illustrator 23.1.1, SVG Export Plug-In . SVG Version: 6.00 Build 0)  -->
<svg version="1.1" id="Ebene_1" xmlns="http://www.w3.org/2000/svg" xmlns:xlink="http://www.w3.org/1999/xlink" x="0px" y="0px"
	 viewBox="0 0 25 25" style="enable-background:new 0 0 25 25;" xml:space="preserve">
<style type="text/css">
	.st0{fill:url(#SVGID_1_);}
	.st1{fill:url(#SVGID_2_);}
	.st2{fill:url(#SVGID_3_);}
	.st3{fill:url(#SVGID_4_);}
	.st4{fill:url(#SVGID_5_);}
	.st5{fill:url(#SVGID_6_);}
	.st6{fill:url(#SVGID_7_);}
	.st7{fill:url(#SVGID_8_);}
	.st8{fill:url(#SVGID_9_);}
	.st9{fill:url(#SVGID_10_);}
	.st10{fill:url(#SVGID_11_);}
	.st11{fill:url(#SVGID_12_);}
	.st12{fill:url(#SVGID_13_);}
	.st13{fill:url(#SVGID_14_);}
</style>
<g>
	<linearGradient id="SVGID_1_" gradientUnits="userSpaceOnUse" x1="2.9764" y1="11.2839" x2="20.4367" y2="11.2839">
		<stop  offset="1" style="stop-color:#E7454F"/>
	</linearGradient>
	<path class="st0" d="M14.15,2.14c-3.37-0.01-6.23,2.79-6.31,6.16c-0.04,1.79,0.68,3.42,1.85,4.59c0.05,0.05,0.05,0.13,0,0.18
		l-1.68,1.68c-0.1,0.1-0.24,0.14-0.37,0.12c-0.32-0.05-0.65,0.05-0.89,0.29l-3.46,3.46c-0.41,0.41-0.41,1.09,0,1.5
		c0.41,0.41,1.09,0.41,1.5,0l3.46-3.46c0.24-0.24,0.34-0.58,0.29-0.89c-0.02-0.14,0.02-0.27,0.12-0.37l1.75-1.75
		c0.04-0.04,0.11-0.05,0.16-0.02c1.01,0.7,2.24,1.11,3.56,1.11c3.47,0,6.3-2.83,6.3-6.3C20.44,4.97,17.62,2.14,14.15,2.14z
		 M14.14,13.82c-2.97,0-5.39-2.41-5.39-5.39c0-2.96,2.42-5.37,5.37-5.37c2.97,0,5.39,2.42,5.39,5.39
		C19.51,11.4,17.1,13.81,14.14,13.82z M17.01,5.28c0.18,0.17,0.19,0.47,0.02,0.65c-0.09,0.1-0.21,0.14-0.33,0.14
		c-0.11,0-0.23-0.04-0.32-0.13c-1.32-1.25-3.24-0.67-3.26-0.66c-0.24,0.08-0.5-0.06-0.58-0.3c-0.08-0.24,0.06-0.5,0.3-0.58
		C12.94,4.38,15.29,3.65,17.01,5.28z"/>
</g>
</svg>
