<?xml version="1.0" encoding="utf-8"?>
<!-- Generator: Adobe Illustrator 23.1.1, SVG Export Plug-In . SVG Version: 6.00 Build 0)  -->
<svg version="1.1" id="Ebene_1" xmlns="http://www.w3.org/2000/svg" xmlns:xlink="http://www.w3.org/1999/xlink" x="0px" y="0px"
	 viewBox="0 0 25 25" style="enable-background:new 0 0 25 25;" xml:space="preserve">
<style type="text/css">
	.st0{fill:url(#SVGID_1_);}
	.st1{fill:url(#SVGID_2_);}
	.st2{fill:url(#SVGID_3_);}
	.st3{fill:url(#SVGID_4_);}
	.st4{fill:url(#SVGID_5_);}
	.st5{fill:url(#SVGID_6_);}
	.st6{fill:url(#SVGID_7_);}
	.st7{fill:url(#SVGID_8_);}
	.st8{fill:url(#SVGID_9_);}
	.st9{fill:url(#SVGID_10_);}
	.st10{fill:url(#SVGID_11_);}
	.st11{fill:url(#SVGID_12_);}
	.st12{fill:url(#SVGID_13_);}
	.st13{fill:url(#SVGID_14_);}
</style>
<g>
	<linearGradient id="SVGID_1_" gradientUnits="userSpaceOnUse" x1="4.3272" y1="12.1175" x2="22.1568" y2="12.1175">
		<stop  offset="0" style="stop-color:#5C4897"/>
		<stop  offset="1" style="stop-color:#E7454F"/>
	</linearGradient>
	<path class="st0" d="M22.09,12.25L22.09,12.25c-0.14-0.33-0.45-0.54-0.81-0.54h-3.71c-0.13,0-0.23-0.1-0.23-0.23l-0.01-7.9
		c0-0.48-0.39-0.87-0.87-0.87h-6.44c-0.48,0-0.87,0.39-0.87,0.88l0.01,7.89c0,0.13-0.1,0.23-0.23,0.23H5.2
		c-0.35,0-0.67,0.21-0.81,0.54c-0.13,0.33-0.06,0.7,0.19,0.95l8.03,8.06c0.16,0.16,0.39,0.26,0.62,0.26c0.23,0,0.45-0.09,0.62-0.26
		l8.05-8.06C22.15,12.96,22.23,12.58,22.09,12.25z M13.07,20.38l-7.31-7.34c-0.14-0.14-0.04-0.39,0.16-0.39h3.46
		c0.4,0,0.72-0.32,0.72-0.72l-0.01-8.05c0-0.13,0.1-0.23,0.23-0.23h5.85c0.13,0,0.23,0.1,0.23,0.23l0.01,8.05
		c0,0.4,0.32,0.72,0.72,0.72h3.45c0.2,0,0.3,0.25,0.16,0.39l-7.34,7.34C13.3,20.47,13.16,20.47,13.07,20.38z"/>
</g>
</svg>
