<?xml version="1.0" encoding="utf-8"?>
<!-- Generator: Adobe Illustrator 23.1.1, SVG Export Plug-In . SVG Version: 6.00 Build 0)  -->
<svg version="1.1" id="Ebene_1" xmlns="http://www.w3.org/2000/svg" xmlns:xlink="http://www.w3.org/1999/xlink" x="0px" y="0px"
	 viewBox="0 0 25 25" style="enable-background:new 0 0 25 25;" xml:space="preserve">
<style type="text/css">
	.st0{fill:url(#SVGID_1_);}
	.st1{fill:url(#SVGID_2_);}
	.st2{fill:url(#SVGID_3_);}
	.st3{fill:url(#SVGID_4_);}
	.st4{fill:url(#SVGID_5_);}
	.st5{fill:url(#SVGID_6_);}
	.st6{fill:url(#SVGID_7_);}
	.st7{fill:url(#SVGID_8_);}
	.st8{fill:url(#SVGID_9_);}
	.st9{fill:url(#SVGID_10_);}
	.st10{fill:url(#SVGID_11_);}
	.st11{fill:url(#SVGID_12_);}
	.st12{fill:url(#SVGID_13_);}
	.st13{fill:url(#SVGID_14_);}
</style>
<g>
	<linearGradient id="SVGID_1_" gradientUnits="userSpaceOnUse" x1="3.8161" y1="11.2839" x2="22.7652" y2="11.2839">
		<stop  offset="1" style="stop-color:#E7454F"/>
	</linearGradient>
	<path class="st0" d="M14.59,20.76h-2.6c-0.22,0-0.42-0.07-0.59-0.21c-0.18-0.15-0.29-0.35-0.31-0.58l-0.25-1.62
		c-0.02-0.13-0.11-0.25-0.24-0.3c-0.06-0.02-0.11-0.05-0.17-0.07c-0.13-0.05-0.27-0.03-0.38,0.05l-1.24,0.94
		c-0.27,0.25-0.86,0.28-1.21-0.07c-1-0.91-1.66-1.58-1.98-2.03c-0.11-0.16-0.17-0.35-0.17-0.55c0-0.19,0.06-0.39,0.19-0.55
		c0.12-0.16,0.32-0.43,0.61-0.79c0.11-0.14,0.22-0.27,0.31-0.39c0.09-0.11,0.1-0.26,0.05-0.39c-0.04-0.09-0.08-0.18-0.11-0.28
		c-0.05-0.13-0.17-0.22-0.3-0.24l-1.62-0.24c-0.23-0.04-0.42-0.15-0.56-0.33c-0.12-0.16-0.19-0.36-0.19-0.56v-2.6
		c0-0.19,0.06-0.38,0.18-0.55C4.17,9.18,4.38,9.1,4.52,9.07l1.69-0.25c0.13-0.02,0.25-0.11,0.3-0.24c0.03-0.07,0.06-0.14,0.09-0.21
		C6.65,8.25,6.64,8.1,6.55,7.99C6.29,7.64,5.98,7.25,5.62,6.82C5.47,6.64,5.4,6.44,5.4,6.23c0-0.18,0.06-0.36,0.19-0.54
		C5.82,5.38,6.21,4.94,6.8,4.37c0.82-0.81,1.16-0.97,1.44-0.97c0.21,0,0.41,0.07,0.59,0.21l1.2,0.93c0.11,0.09,0.26,0.11,0.39,0.05
		c0.05-0.02,0.11-0.05,0.16-0.07c0.13-0.05,0.22-0.17,0.24-0.31c0.1-0.81,0.2-1.37,0.29-1.72c0.11-0.43,0.44-0.68,0.88-0.68h2.6
		c0.22,0,0.42,0.07,0.59,0.21c0.18,0.15,0.29,0.36,0.31,0.59l0.25,1.61c0.02,0.13,0.11,0.25,0.24,0.3c0.06,0.02,0.12,0.05,0.17,0.07
		c0.13,0.05,0.27,0.03,0.38-0.05l1.25-0.94c0.21-0.22,0.78-0.29,1.16,0.03C20,4.6,20.65,5.27,20.96,5.7
		c0.1,0.11,0.17,0.31,0.17,0.53c0,0.2-0.06,0.39-0.19,0.55c-0.12,0.16-0.32,0.43-0.61,0.79c-0.11,0.14-0.22,0.28-0.31,0.39
		c-0.09,0.11-0.1,0.26-0.05,0.39c0.04,0.09,0.08,0.18,0.11,0.27c0.05,0.13,0.16,0.22,0.3,0.24l1.64,0.25
		c0.22,0.04,0.41,0.15,0.55,0.33c0.13,0.16,0.19,0.36,0.19,0.56v2.6c0,0.19-0.06,0.38-0.18,0.55c-0.13,0.19-0.32,0.31-0.54,0.34
		l-1.68,0.25c-0.13,0.02-0.25,0.11-0.3,0.24c-0.03,0.06-0.05,0.13-0.08,0.19c-0.06,0.13-0.04,0.28,0.05,0.39
		c0.24,0.32,0.55,0.71,0.93,1.18c0.14,0.17,0.22,0.38,0.22,0.59c0,0.22-0.08,0.42-0.23,0.59c-0.2,0.27-0.59,0.71-1.18,1.29
		c-0.82,0.81-1.16,0.97-1.43,0.97c-0.19,0-0.37-0.06-0.56-0.18l-1.24-0.96c-0.11-0.09-0.26-0.11-0.39-0.05
		C16.1,18,16.05,18.03,16,18.05c-0.13,0.05-0.22,0.17-0.24,0.31c-0.1,0.81-0.2,1.37-0.29,1.72C15.37,20.5,15.04,20.76,14.59,20.76z
		 M10.19,16.87c0.07,0,0.15,0.02,0.22,0.05c0.3,0.15,0.63,0.29,0.99,0.4c0.17,0.06,0.3,0.2,0.32,0.38l0.26,1.72
		c0.04,0.25,0.26,0.44,0.51,0.43l1.69-0.03c0.25-0.01,0.45-0.19,0.49-0.43c0.06-0.39,0.14-0.95,0.22-1.67
		c0.02-0.18,0.15-0.34,0.33-0.4c0.34-0.11,0.67-0.25,0.99-0.41c0.17-0.09,0.37-0.07,0.51,0.05l1.3,1.02
		c0.19,0.15,0.46,0.14,0.65-0.02c0.12-0.1,0.26-0.24,0.45-0.42c0.35-0.34,0.63-0.64,0.84-0.87c0.16-0.19,0.17-0.46,0.01-0.65
		c-0.45-0.55-0.78-0.98-1.01-1.31c-0.1-0.15-0.11-0.34-0.03-0.5c0.14-0.27,0.29-0.6,0.43-1c0.06-0.17,0.2-0.29,0.38-0.31l1.72-0.26
		c0.25-0.04,0.44-0.26,0.43-0.52l-0.05-1.64c-0.01-0.24-0.19-0.45-0.43-0.49l-1.66-0.26c-0.18-0.03-0.33-0.15-0.38-0.33
		c-0.11-0.35-0.26-0.71-0.45-1.07c-0.08-0.16-0.07-0.35,0.04-0.5c0.14-0.2,0.36-0.48,0.65-0.84c0.13-0.17,0.25-0.31,0.34-0.44
		c0.15-0.19,0.14-0.46-0.02-0.65c-0.28-0.31-0.71-0.74-1.27-1.27c-0.18-0.17-0.46-0.18-0.66-0.03l-1.29,1.01
		c-0.15,0.11-0.34,0.12-0.5,0.04c-0.3-0.15-0.63-0.29-0.99-0.4c-0.17-0.06-0.3-0.2-0.32-0.38l-0.26-1.72
		c-0.04-0.25-0.26-0.44-0.51-0.43l-1.68,0.03c-0.25,0.01-0.45,0.19-0.49,0.43c-0.06,0.39-0.14,0.95-0.22,1.67
		c-0.02,0.19-0.15,0.34-0.33,0.4c-0.34,0.11-0.67,0.25-0.99,0.41c-0.16,0.09-0.36,0.07-0.51-0.04L8.56,4.6
		C8.37,4.45,8.1,4.46,7.92,4.62C7.8,4.72,7.65,4.86,7.47,5.04C7.08,5.42,6.82,5.7,6.64,5.9C6.48,6.09,6.47,6.37,6.63,6.56
		c0.4,0.48,0.74,0.93,1,1.3c0.1,0.15,0.12,0.34,0.03,0.5C7.48,8.69,7.34,9.02,7.24,9.35c-0.05,0.18-0.2,0.3-0.38,0.33L5.2,9.93
		c-0.25,0.04-0.43,0.25-0.43,0.5l0,1.69c0,0.26,0.19,0.47,0.44,0.5l1.64,0.21c0.18,0.03,0.34,0.16,0.39,0.34
		c0.1,0.35,0.25,0.7,0.44,1.06c0.09,0.16,0.07,0.36-0.03,0.5C7.5,14.94,7.28,15.22,7,15.58c-0.13,0.17-0.25,0.31-0.34,0.44
		c-0.15,0.19-0.14,0.46,0.02,0.64c0.28,0.32,0.71,0.75,1.28,1.27c0.18,0.17,0.46,0.18,0.65,0.03l1.3-1
		C9.98,16.9,10.08,16.87,10.19,16.87z M21.81,10.01C21.81,10.01,21.81,10.01,21.81,10.01L21.81,10.01L21.81,10.01z M8.25,4.36
		C8.26,4.36,8.26,4.36,8.25,4.36C8.26,4.36,8.26,4.36,8.25,4.36z M13.29,15.42c-2.29,0-4.15-1.87-4.13-4.16
		c0.02-2.25,1.85-4.08,4.1-4.1c2.29-0.02,4.17,1.84,4.17,4.13C17.42,13.56,15.57,15.42,13.29,15.42z M13.4,8.1
		c-1.84-0.06-3.35,1.45-3.29,3.29c0.05,1.62,1.46,3.02,3.08,3.07c1.84,0.06,3.35-1.45,3.29-3.29C16.42,9.56,15.02,8.16,13.4,8.1z"/>
</g>
</svg>
